<?xml version="1.0" standalone="no"?>
<!DOCTYPE svg PUBLIC "-//W3C//DTD SVG 20010904//EN"
 "http://www.w3.org/TR/2001/REC-SVG-20010904/DTD/svg10.dtd">
<svg version="1.0" xmlns="http://www.w3.org/2000/svg"
 width="250.000000pt" height="250.000000pt" viewBox="0 0 250.000000 250.000000"
 preserveAspectRatio="xMidYMid meet">
<metadata>
Created by potrace 1.11, written by Peter Selinger 2001-2013
</metadata>
<g transform="translate(0.000000,250.000000) scale(0.100000,-0.100000)"
fill="#000000" stroke="none">
<path d="M1145 2075 c-5 -2 -57 -6 -115 -9 -157 -7 -224 -19 -360 -61 -174
-55 -339 -154 -458 -274 -282 -287 -276 -691 13 -977 174 -173 418 -283 705
-319 56 -7 243 -15 238 -10 -2 2 -46 31 -98 65 -117 77 -179 127 -249 199
-100 105 -195 273 -217 386 -17 91 -20 120 -17 195 9 293 181 551 496 744 85
53 111 78 62 61z"/>
<path d="M803 1441 c9 -12 9 -13 0 -7 -15 9 -17 -7 -3 -32 5 -9 16 -46 24 -82
20 -87 47 -192 53 -210 7 -18 9 -25 18 -65 3 -16 8 -37 10 -45 2 -8 4 -23 4
-33 1 -10 5 -16 10 -13 4 3 8 -2 8 -12 0 -49 5 -65 31 -91 23 -24 34 -28 84
-28 35 0 55 4 51 10 -4 6 -1 7 8 1 8 -4 30 -10 50 -11 40 -3 51 9 44 47 -2 11
0 18 6 15 5 -4 10 1 10 9 2 23 4 30 10 41 3 6 11 30 18 55 7 25 17 53 22 62
12 24 11 30 -3 23 -7 -4 -5 0 5 8 10 8 19 29 20 46 2 28 3 29 15 14 6 -9 12
-25 12 -35 0 -10 4 -18 10 -18 5 0 7 -6 4 -13 -3 -8 4 -35 15 -60 11 -26 20
-48 19 -50 -1 -1 6 -25 16 -53 24 -74 46 -89 133 -90 51 -1 71 2 66 10 -3 6 0
5 8 -1 14 -14 60 -18 57 -5 0 4 1 14 5 22 3 8 12 42 20 75 8 33 16 67 18 75 2
8 -2 14 -9 12 -8 -1 -11 2 -7 8 3 6 11 8 16 5 8 -6 12 7 12 47 0 10 4 15 10
11 6 -4 8 2 5 15 -4 12 -2 22 2 22 5 0 7 11 5 25 -1 14 1 25 5 25 7 0 35 104
35 130 -1 8 2 17 5 20 3 3 11 22 17 44 10 33 9 41 -8 59 -10 11 -19 17 -19 11
0 -5 -4 -3 -9 5 -10 16 -81 21 -81 6 0 -7 -3 -7 -8 0 -6 9 -27 10 -93 6 -10
-1 -16 -9 -15 -23 1 -13 -1 -25 -5 -28 -4 -3 -9 -23 -13 -45 -3 -22 -12 -64
-20 -92 -8 -31 -10 -53 -5 -53 6 0 7 -4 4 -10 -9 -15 -35 -12 -35 3 0 11 -12
54 -44 152 -2 6 -3 12 -2 15 2 10 -37 65 -53 74 -21 13 -111 14 -111 1 0 -7
-3 -7 -8 0 -8 12 -32 13 -49 2 -7 -5 -13 -4 -13 2 0 6 -6 8 -14 5 -18 -7 -28
-44 -13 -44 9 0 9 -2 0 -8 -16 -10 -35 -62 -29 -79 4 -9 1 -11 -6 -7 -7 5 -9
0 -6 -14 4 -12 3 -20 -1 -17 -4 2 -14 -18 -21 -45 -15 -54 -30 -66 -30 -24 0
14 -3 23 -7 21 -5 -3 -9 18 -11 46 -1 28 -5 53 -10 56 -7 6 -12 27 -14 61 -1
16 -29 40 -61 52 -12 5 -16 4 -11 -4 5 -7 3 -8 -6 -3 -16 10 -104 10 -121 0
-7 -5 -10 -4 -5 3 4 6 -1 10 -13 9 -16 -1 -18 -4 -8 -16z"/>
<path d="M1829 1460 c-7 -22 -4 -68 5 -79 8 -11 8 -13 -1 -7 -18 10 -18 -115
0 -133 10 -11 10 -13 0 -7 -9 5 -13 0 -13 -16 0 -13 6 -30 13 -37 10 -11 9
-12 -1 -7 -17 10 -15 -132 2 -153 8 -11 8 -13 -1 -7 -10 5 -13 -6 -13 -46 0
-30 6 -60 13 -67 10 -11 9 -12 -1 -6 -23 13 -9 -29 16 -46 12 -8 20 -18 17
-20 -2 -3 13 -5 35 -6 27 -1 38 3 33 11 -5 8 -3 8 8 0 8 -6 43 -12 78 -13 50
-2 62 0 56 11 -6 10 -5 11 6 1 17 -17 43 -17 33 0 -6 9 -4 9 7 1 21 -15 93
-19 84 -4 -5 9 -2 9 11 2 34 -17 141 16 186 59 22 20 37 42 34 48 -5 7 -1 8
10 4 12 -4 15 -3 10 5 -4 7 -2 12 5 12 7 0 9 3 6 7 -4 3 -2 12 4 20 6 7 8 13
3 13 -5 0 -2 5 6 10 13 9 13 11 0 20 -9 6 -10 10 -3 10 15 0 21 29 12 57 -5
13 -4 25 2 28 5 4 6 11 3 17 -4 6 -7 24 -6 39 0 16 -4 29 -9 29 -6 0 -7 5 -4
10 4 6 1 17 -5 25 -7 8 -9 15 -6 15 12 0 -53 87 -85 114 -36 30 -81 55 -112
62 -56 13 -75 15 -109 17 -21 2 -40 -2 -42 -8 -2 -5 -5 -4 -5 3 -1 6 -6 12
-12 12 -5 0 -7 -5 -3 -12 4 -6 3 -8 -4 -5 -8 6 -104 9 -172 7 -8 -1 -27 1 -42
3 -16 3 -28 0 -28 -7 0 -6 -5 -4 -10 4 -5 8 -10 13 -11 10z m344 -185 c47 -6
55 -13 62 -52 2 -10 4 -18 5 -18 6 0 3 -108 -3 -112 -5 -3 -3 -9 4 -14 11 -7
11 -9 1 -9 -7 0 -11 -4 -8 -9 3 -5 -1 -11 -9 -15 -8 -3 -15 -13 -15 -21 0 -9
-4 -14 -9 -10 -5 3 -15 0 -23 -7 -17 -16 -94 -16 -110 0 -9 9 -9 12 0 12 10 0
10 5 1 21 -8 16 -8 20 1 14 9 -6 9 -2 1 14 -7 11 -8 21 -3 21 10 0 9 30 -2 48
-4 6 -4 12 1 12 9 0 9 97 0 106 -10 11 17 32 38 29 11 -2 42 -6 68 -10z"/>
</g>
</svg>
